<?xml version="1.0" standalone="no"?>
<!DOCTYPE svg PUBLIC "-//W3C//DTD SVG 20010904//EN"
 "http://www.w3.org/TR/2001/REC-SVG-20010904/DTD/svg10.dtd">
<svg version="1.0" xmlns="http://www.w3.org/2000/svg"
 width="128.000000pt" height="128.000000pt" viewBox="0 0 128.000000 128.000000"
 preserveAspectRatio="xMidYMid meet">
<metadata>
Created by potrace 1.11, written by Peter Selinger 2001-2013
</metadata>
<g transform="translate(0.000000,128.000000) scale(0.100000,-0.100000)"
fill="#000000" stroke="none">
<path d="M0 640 l0 -640 640 0 640 0 0 640 0 640 -640 0 -640 0 0 -640z m504
455 c10 -25 16 -51 13 -59 -4 -11 2 -12 36 -4 39 9 134 6 202 -6 17 -3 22 -3
12 0 -16 5 -18 12 -12 42 12 68 14 72 51 72 l34 0 -21 -52 c-33 -82 -33 -85
-6 -92 37 -9 118 -86 154 -148 45 -74 58 -150 43 -250 -18 -125 -60 -197 -152
-264 -75 -54 -120 -67 -223 -66 -126 1 -185 24 -268 105 -75 74 -103 138 -113
255 -6 80 8 158 39 219 20 38 117 129 161 150 20 9 36 20 36 24 0 4 -11 27
-25 50 -31 54 -31 69 -2 69 17 0 26 -11 41 -45z m242 13 c-8 -43 -28 -57 -76
-52 -22 2 -59 0 -84 -5 l-45 -8 -15 39 c-9 21 -16 40 -16 42 0 10 40 14 139
15 l104 1 -7 -32z m-547 -274 c56 -25 74 -45 52 -58 -16 -10 -121 47 -121 66
0 23 -3 23 69 -8z m931 3 c0 -7 -25 -26 -54 -44 -45 -26 -56 -29 -60 -16 -9
21 0 30 52 57 47 24 62 25 62 3z m0 -187 l0 -150 -47 27 -48 26 0 96 0 96 40
27 c22 16 43 28 48 28 4 0 7 -67 7 -150z m-979 123 c-11 -4 -11 -7 0 -13 9 -6
10 -12 2 -22 -9 -10 -3 -13 32 -13 25 0 41 -4 39 -10 -2 -5 -5 -36 -7 -68 -5
-66 -6 -68 -41 -71 -14 0 -26 -7 -26 -14 0 -7 -4 -10 -10 -7 -6 4 -10 53 -10
116 0 97 2 109 18 108 12 0 13 -2 3 -6z m69 -23 c0 -5 -8 -10 -17 -10 -15 0
-16 2 -3 10 19 12 20 12 20 0z m-30 -214 c0 -2 -7 -6 -15 -10 -8 -3 -15 -1
-15 4 0 6 7 10 15 10 8 0 15 -2 15 -4z m-45 -27 c-9 -14 16 -10 45 6 32 18 47
19 53 1 3 -8 -5 -19 -21 -27 -15 -7 -39 -21 -54 -31 -14 -10 -29 -18 -32 -18
-3 0 -5 20 -4 45 0 24 5 42 9 39 5 -3 7 -10 4 -15z m943 -4 c33 -13 42 -22 42
-41 0 -13 -5 -24 -10 -24 -12 0 -110 48 -110 54 0 17 15 36 24 33 6 -3 30 -13
54 -22z m-573 -251 c0 -5 -9 -31 -20 -57 -19 -47 -21 -48 -54 -43 -18 3 -35 7
-37 9 -4 4 33 86 48 104 10 13 63 2 63 -13z m331 -10 c8 -19 17 -48 21 -65 5
-27 4 -29 -26 -29 -25 0 -34 6 -42 28 -6 15 -16 39 -23 53 -11 22 -11 28 3 37
30 21 51 13 67 -24z m-306 -23 c-16 -30 -12 -36 8 -11 15 18 29 22 94 23 48 1
74 -2 70 -8 -3 -5 1 -4 10 3 18 14 25 8 52 -45 l17 -33 -146 0 c-95 0 -145 4
-145 11 0 5 5 7 12 3 8 -5 9 -2 4 11 -4 10 0 28 9 41 19 29 30 32 15 5z"/>
<path d="M513 975 c-205 -65 -294 -323 -179 -519 32 -54 71 -88 150 -128 54
-28 71 -32 146 -32 110 0 187 32 258 108 68 72 87 127 87 251 0 119 -20 169
-97 241 -75 70 -136 94 -238 93 -47 -1 -104 -7 -127 -14z m165 -1 c12 -4 22
-14 22 -23 0 -13 2 -14 9 -2 26 41 163 -53 214 -148 52 -95 52 -226 1 -319
-29 -53 -44 -72 -44 -56 0 6 3 14 7 18 4 4 15 28 25 54 l18 47 -37 32 c-21 18
-44 33 -50 33 -7 0 -13 5 -13 11 0 5 -11 -3 -25 -18 -22 -25 -24 -26 -25 -8
l-1 20 -9 -20 c-12 -28 -12 -37 0 -30 6 3 10 1 10 -6 0 -7 11 2 25 21 33 44
32 24 0 -25 -30 -43 -27 -61 16 -110 l30 -34 -39 -39 c-44 -44 -98 -62 -191
-62 -78 0 -202 51 -171 70 11 7 -5 64 -31 112 -5 10 -6 23 -4 30 3 7 1 33 -4
58 -6 29 -9 36 -10 19 -1 -14 -10 -34 -21 -44 -20 -18 -21 -18 -35 1 -9 11
-14 14 -15 6 0 -24 28 -79 60 -116 35 -39 34 -62 -1 -30 -51 45 -108 224 -81
257 5 6 8 23 6 35 -10 59 85 188 168 229 67 32 88 37 88 19 0 -9 5 -16 11 -16
6 0 9 6 6 14 -9 23 40 33 91 20z"/>
<path d="M416 858 c3 -4 11 -5 19 -1 21 7 19 12 -4 10 -11 0 -18 -5 -15 -9z"/>
<path d="M344 763 c2 -3 0 -18 -4 -34 -9 -30 0 -36 33 -23 20 7 3 61 -18 61
-8 0 -13 -2 -11 -4z"/>
<path d="M884 710 c0 -12 11 -24 28 -31 35 -14 41 -9 32 25 -5 20 -12 26 -33
26 -20 0 -27 -5 -27 -20z"/>
<path d="M348 683 c-27 -7 -22 -17 14 -31 37 -14 42 -11 33 17 -6 21 -14 23
-47 14z"/>
<path d="M862 650 c-11 -18 -8 -23 30 -50 39 -28 43 -29 49 -13 14 35 9 53
-21 68 -38 19 -43 19 -58 -5z"/>
<path d="M570 633 c-23 -9 -42 -32 -35 -42 13 -22 -14 -18 -34 5 -29 33 -41
27 -57 -27 -18 -59 -17 -79 2 -79 11 0 15 -6 11 -20 -3 -11 -1 -20 5 -20 5 0
6 -5 3 -10 -3 -6 5 -14 19 -20 31 -11 35 -25 6 -17 -28 7 -25 -11 5 -25 28
-12 85 5 85 27 0 7 12 20 26 30 21 14 23 19 13 32 -11 12 -7 20 27 48 38 33
39 34 23 62 -10 19 -22 27 -37 26 -16 -2 -22 3 -22 17 0 20 -12 24 -40 13z"/>
<path d="M775 449 c-3 -9 -1 -28 5 -43 8 -23 13 -26 25 -16 14 12 13 19 -14
60 -9 13 -11 12 -16 -1z"/>
<path d="M670 395 l-54 -55 42 0 c44 0 109 26 97 38 -4 4 -12 7 -18 7 -7 0
-11 13 -9 33 2 17 2 32 0 32 -2 0 -28 -25 -58 -55z"/>
</g>
</svg>
